<svg width="30" height="26" viewBox="0 0 30 26" fill="none" xmlns="http://www.w3.org/2000/svg">
<g clip-path="url(#clip0_16_34)">
<path fill-rule="evenodd" clip-rule="evenodd" d="M4.02439 0C2.95706 0 1.93344 0.367464 1.17872 1.02155C0.423997 1.67564 0 2.56278 0 3.4878C0 4.41283 0.423997 5.29997 1.17872 5.95406C1.93344 6.60815 2.95706 6.97561 4.02439 6.97561C5.09172 6.97561 6.11534 6.60815 6.87006 5.95406C7.62478 5.29997 8.04878 4.41283 8.04878 3.4878C8.04878 2.56278 7.62478 1.67564 6.87006 1.02155C6.11534 0.367464 5.09172 0 4.02439 0ZM2.19512 3.4878C2.19512 3.06734 2.38785 2.6641 2.7309 2.36678C3.07396 2.06947 3.53924 1.90244 4.02439 1.90244C4.50954 1.90244 4.97482 2.06947 5.31788 2.36678C5.66093 2.6641 5.85366 3.06734 5.85366 3.4878C5.85366 3.90827 5.66093 4.31151 5.31788 4.60883C4.97482 4.90614 4.50954 5.07317 4.02439 5.07317C3.53924 5.07317 3.07396 4.90614 2.7309 4.60883C2.38785 4.31151 2.19512 3.90827 2.19512 3.4878ZM0 8.56098C0 8.3087 0.115635 8.06675 0.321468 7.88836C0.527301 7.70997 0.80647 7.60976 1.09756 7.60976H6.95122C7.24231 7.60976 7.52148 7.70997 7.72731 7.88836C7.93315 8.06675 8.04878 8.3087 8.04878 8.56098V25.0488C8.04878 25.3011 7.93315 25.543 7.72731 25.7214C7.52148 25.8998 7.24231 26 6.95122 26H1.09756C0.80647 26 0.527301 25.8998 0.321468 25.7214C0.115635 25.543 0 25.3011 0 25.0488V8.56098ZM2.19512 9.5122V24.0976H5.85366V9.5122H2.19512ZM10.2439 8.56098C10.2439 8.3087 10.3595 8.06675 10.5654 7.88836C10.7712 7.70997 11.0504 7.60976 11.3415 7.60976H17.1951C17.4862 7.60976 17.7654 7.70997 17.9712 7.88836C18.177 8.06675 18.2927 8.3087 18.2927 8.56098V9.11141L18.9293 8.87424C20.0269 8.46789 21.1913 8.21325 22.38 8.11961C26.441 7.8 30 10.5649 30 14.1161V25.0488C30 25.3011 29.8844 25.543 29.6785 25.7214C29.4727 25.8998 29.1935 26 28.9024 26H23.0488C22.7577 26 22.4785 25.8998 22.2727 25.7214C22.0669 25.543 21.9512 25.3011 21.9512 25.0488V16.1707C21.9512 15.7503 21.7585 15.347 21.4154 15.0497C21.0724 14.7524 20.6071 14.5854 20.122 14.5854C19.6368 14.5854 19.1715 14.7524 18.8285 15.0497C18.4854 15.347 18.2927 15.7503 18.2927 16.1707V25.0488C18.2927 25.3011 18.177 25.543 17.9712 25.7214C17.7654 25.8998 17.4862 26 17.1951 26H11.3415C11.0504 26 10.7712 25.8998 10.5654 25.7214C10.3595 25.543 10.2439 25.3011 10.2439 25.0488V8.56098ZM12.439 9.5122V24.0976H16.0976V16.1707C16.0976 15.2457 16.5216 14.3586 17.2763 13.7045C18.031 13.0504 19.0546 12.6829 20.122 12.6829C21.1893 12.6829 22.2129 13.0504 22.9676 13.7045C23.7223 14.3586 24.1463 15.2457 24.1463 16.1707V24.0976H27.8049V14.1161C27.8049 11.7013 25.3741 9.79376 22.5805 10.0144C21.6207 10.0899 20.6805 10.2953 19.7941 10.6232L17.6283 11.4286C17.4612 11.4908 17.279 11.516 17.0979 11.5021C16.9168 11.4881 16.7425 11.4354 16.5908 11.3486C16.439 11.2618 16.3145 11.1438 16.2284 11.005C16.1423 10.8662 16.0973 10.711 16.0976 10.5535V9.5122H12.439Z" fill="#00FFEE"/>
</g>
<defs>
<clipPath id="clip0_16_34">
<rect width="30" height="26" fill="white"/>
</clipPath>
</defs>
</svg>
