<svg width="28" height="26" viewBox="0 0 28 26" fill="none" xmlns="http://www.w3.org/2000/svg">
<path d="M22.4 1H5.6C4.64522 1 3.72955 1.47411 3.05442 2.31802C2.37928 3.16193 2 4.30653 2 5.5V20.5C2 21.6935 2.37928 22.8381 3.05442 23.682C3.72955 24.5259 4.64522 25 5.6 25H22.4C23.3548 25 24.2705 24.5259 24.9456 23.682C25.6207 22.8381 26 21.6935 26 20.5V5.5C26 4.30653 25.6207 3.16193 24.9456 2.31802C24.2705 1.47411 23.3548 1 22.4 1ZM21.596 4L14 11.125L6.404 4H21.596ZM22.4 22H5.6C5.28174 22 4.97652 21.842 4.75147 21.5607C4.52643 21.2794 4.4 20.8978 4.4 20.5V5.875L13.28 14.2C13.4877 14.3947 13.7404 14.5 14 14.5C14.2596 14.5 14.5123 14.3947 14.72 14.2L23.6 5.875V20.5C23.6 20.8978 23.4736 21.2794 23.2485 21.5607C23.0235 21.842 22.7183 22 22.4 22Z" fill="#00FFEE"/>
</svg>
