<svg width="26" height="26" viewBox="0 0 26 26" fill="none" xmlns="http://www.w3.org/2000/svg">
<path d="M6.84134 6.69052C6.5705 5.99935 6.58134 5.2096 6.70159 4.48702C7.52921 4.73571 8.30661 5.12808 8.99825 5.64619C9.30158 5.87802 9.69917 5.95277 10.0697 5.84119C11.0202 5.55608 12.0077 5.41298 13.0001 5.41652C14.0412 5.41652 15.0303 5.56818 15.9283 5.8401C16.2988 5.95277 16.6964 5.87694 16.9987 5.6451C17.69 5.12711 18.467 4.73474 19.2943 4.48594C19.4145 5.20852 19.4242 5.99827 19.1556 6.68835C18.9931 7.10435 19.0743 7.58319 19.3809 7.92335C20.1652 8.79327 20.5834 9.79319 20.5834 10.8332C20.5834 13.1234 18.4493 15.3691 15.0216 16.0527C14.1636 16.2239 13.8288 17.3039 14.4853 17.9225C14.9068 18.319 15.1668 18.878 15.1668 19.4999V22.7499C15.1668 23.0372 15.2809 23.3127 15.4841 23.5159C15.6872 23.719 15.9628 23.8332 16.2501 23.8332C16.5374 23.8332 16.813 23.719 17.0161 23.5159C17.2193 23.3127 17.3334 23.0372 17.3334 22.7499V19.4999C17.3334 18.8824 17.2034 18.2952 16.9716 17.7633C20.24 16.629 22.7501 14.0756 22.7501 10.8332C22.7501 9.37394 22.2257 8.03277 21.3558 6.90935C21.5833 6.02102 21.5627 5.12619 21.4761 4.43935C21.3992 3.82402 21.2919 3.01802 20.8586 2.53702C20.214 1.8231 19.1469 2.24344 18.3886 2.50235C17.5747 2.77667 16.8007 3.15733 16.0865 3.63444C15.078 3.37669 14.041 3.24747 13.0001 3.24985C11.9233 3.24985 10.8843 3.38527 9.9115 3.63552C9.19735 3.15841 8.42329 2.77776 7.60942 2.50344C6.85109 2.24344 5.78292 1.8231 5.13834 2.53702C4.69634 3.02669 4.60425 3.76877 4.52517 4.39927L4.51975 4.44044C4.43309 5.12835 4.41359 6.02427 4.64109 6.91369C3.77442 8.03602 3.25009 9.37502 3.25009 10.8332C3.25009 14.0745 5.76017 16.629 9.02858 17.7633C8.79242 18.3043 8.66929 18.8879 8.66675 19.4782L8.48475 19.515C7.708 19.6223 7.21075 19.5259 6.87275 19.3829C6.04942 19.034 5.62475 18.1554 5.10692 17.4838C4.78409 17.0667 4.31392 16.5456 3.59242 16.3051C3.45741 16.2601 3.31487 16.2422 3.17293 16.2524C3.03099 16.2625 2.89244 16.3005 2.76519 16.3642C2.50818 16.4928 2.31279 16.7182 2.222 16.9909C2.13121 17.2635 2.15245 17.5611 2.28105 17.8181C2.40966 18.0751 2.63509 18.2705 2.90775 18.3613C3.51225 18.5628 3.93042 19.5984 4.31392 20.0578C4.718 20.5431 5.25534 21.0501 6.02559 21.3773C6.76442 21.6914 7.63217 21.803 8.66675 21.6763V22.7499C8.66675 23.0372 8.78089 23.3127 8.98405 23.5159C9.18722 23.719 9.46277 23.8332 9.75009 23.8332C10.0374 23.8332 10.313 23.719 10.5161 23.5159C10.7193 23.3127 10.8334 23.0372 10.8334 22.7499V19.4999C10.8334 18.878 11.0934 18.319 11.5148 17.9225C12.1724 17.3029 11.8366 16.2239 10.9786 16.0527C7.54983 15.3691 5.41675 13.1234 5.41675 10.8332C5.41675 9.79535 5.83384 8.79544 6.61709 7.92552C6.92367 7.58535 7.00384 7.10652 6.84134 6.69052Z" fill="#00FFEE"/>
</svg>
