<svg width="30" height="30" viewBox="0 0 30 30" fill="none" xmlns="http://www.w3.org/2000/svg">
<g clip-path="url(#clip0_33_6)">
<path d="M6.81344 6.29127C6.41871 5.33537 6.43449 4.24312 6.60976 3.24377C7.81599 3.58771 8.94904 4.13037 9.95708 4.84693C10.3992 5.16756 10.9787 5.27094 11.5186 5.11662C12.9041 4.72231 14.3433 4.52439 15.7896 4.52929C17.307 4.52929 18.7486 4.73905 20.0575 5.11512C20.5975 5.27094 21.1769 5.16606 21.6175 4.84543C22.625 4.12903 23.7575 3.58638 24.9632 3.24227C25.1385 4.24162 25.1527 5.33387 24.7611 6.28827C24.5243 6.86361 24.6427 7.52585 25.0895 7.99631C26.2327 9.19942 26.8421 10.5823 26.8421 12.0207C26.8421 15.188 23.7317 18.294 18.7359 19.2394C17.4854 19.4761 16.9975 20.9699 17.9544 21.8254C18.5686 22.3738 18.9475 23.1469 18.9475 24.0069V28.5017C18.9475 28.8991 19.1139 29.2802 19.41 29.5612C19.7061 29.8421 20.1077 30 20.5264 30C20.9452 30 21.3468 29.8421 21.6429 29.5612C21.939 29.2802 22.1054 28.8991 22.1054 28.5017V24.0069C22.1054 23.1529 21.9159 22.3408 21.578 21.6052C26.3416 20.0365 30 16.505 30 12.0207C30 10.0025 29.2358 8.14763 27.9679 6.59392C28.2995 5.36533 28.2695 4.12775 28.1432 3.17785C28.0311 2.32682 27.8748 1.21211 27.2432 0.546872C26.3037 -0.440493 24.7485 0.140839 23.6432 0.498927C22.457 0.878319 21.3289 1.40478 20.288 2.06463C18.8182 1.70815 17.3067 1.52944 15.7896 1.53274C14.2202 1.53274 12.706 1.72002 11.2881 2.06612C10.2473 1.40627 9.1191 0.879818 7.9329 0.500425C6.82765 0.140839 5.27083 -0.440493 4.33136 0.546872C3.68716 1.22409 3.55295 2.25041 3.43769 3.12241L3.42979 3.17934C3.30348 4.13075 3.27506 5.36983 3.60663 6.59991C2.34349 8.15213 1.57929 10.004 1.57929 12.0207C1.57929 16.5035 5.23767 20.0365 10.0013 21.6052C9.65709 22.3534 9.47764 23.1605 9.47393 23.9769L9.20867 24.0279C8.07658 24.1762 7.35185 24.0429 6.85923 23.8451C5.65924 23.3626 5.0403 22.1475 4.28557 21.2186C3.81505 20.6418 3.1298 19.9211 2.07823 19.5885C1.88146 19.5263 1.67371 19.5015 1.46684 19.5155C1.25997 19.5295 1.05803 19.5821 0.872564 19.6701C0.497989 19.848 0.213215 20.1598 0.0808875 20.5369C-0.0514399 20.914 -0.0204807 21.3255 0.166955 21.681C0.35439 22.0364 0.682948 22.3066 1.08035 22.4322C1.96139 22.7109 2.57086 24.1432 3.1298 24.7785C3.71874 25.4497 4.50189 26.1509 5.6245 26.6034C6.70133 27.0379 7.96606 27.1922 9.47393 27.0169V28.5017C9.47393 28.8991 9.64028 29.2802 9.93639 29.5612C10.2325 29.8421 10.6341 30 11.0529 30C11.4716 30 11.8732 29.8421 12.1693 29.5612C12.4654 29.2802 12.6318 28.8991 12.6318 28.5017V24.0069C12.6318 23.1469 13.0107 22.3738 13.6249 21.8254C14.5833 20.9684 14.0939 19.4761 12.8434 19.2394C7.84606 18.294 4.73715 15.188 4.73715 12.0207C4.73715 10.5853 5.34503 9.20242 6.4866 7.9993C6.93344 7.52884 7.05028 6.8666 6.81344 6.29127Z" fill="#00FFEE"/>
</g>
<defs>
<clipPath id="clip0_33_6">
<rect width="30" height="30" fill="white"/>
</clipPath>
</defs>
</svg>
