<svg width="40" height="40" viewBox="0 0 40 40" fill="none" xmlns="http://www.w3.org/2000/svg">
<g filter="url(#filter0_d_458_791)">
<rect x="4.5" y="2.5" width="31" height="31" rx="5.5" stroke="#FFBE42" stroke-linejoin="bevel" shape-rendering="crispEdges"/>
<path fill-rule="evenodd" clip-rule="evenodd" d="M15.0992 8.01392C12.5679 8.01392 10.5159 10.0659 10.5159 12.5972V23.2639C10.5159 25.7952 12.5679 27.8472 15.0992 27.8472H25.7659C28.2972 27.8472 30.3492 25.7952 30.3492 23.2639V12.5972C30.3492 10.0659 28.2972 8.01392 25.7659 8.01392H15.0992ZM9.01587 12.5972C9.01587 9.23752 11.7395 6.51392 15.0992 6.51392H25.7659C29.1256 6.51392 31.8492 9.23752 31.8492 12.5972V23.2639C31.8492 26.6236 29.1256 29.3472 25.7659 29.3472H15.0992C11.7395 29.3472 9.01587 26.6236 9.01587 23.2639V12.5972ZM20.4325 14.6806C18.6376 14.6806 17.1825 16.1357 17.1825 17.9306C17.1825 19.7255 18.6376 21.1806 20.4325 21.1806C22.2275 21.1806 23.6825 19.7255 23.6825 17.9306C23.6825 16.1357 22.2275 14.6806 20.4325 14.6806ZM15.6825 17.9306C15.6825 15.3072 17.8092 13.1806 20.4325 13.1806C23.0559 13.1806 25.1825 15.3072 25.1825 17.9306C25.1825 20.5539 23.0559 22.6806 20.4325 22.6806C17.8092 22.6806 15.6825 20.5539 15.6825 17.9306ZM27.1825 11.9306C27.1825 11.5164 26.8467 11.1806 26.4325 11.1806C26.0183 11.1806 25.6825 11.5164 25.6825 11.9306V11.9319C25.6825 12.3461 26.0183 12.6819 26.4325 12.6819C26.8467 12.6819 27.1825 12.3461 27.1825 11.9319V11.9306Z" fill="#1F0B0B"/>
</g>
<defs>
<filter id="filter0_d_458_791" x="0" y="0" width="40" height="40" filterUnits="userSpaceOnUse" color-interpolation-filters="sRGB">
<feFlood flood-opacity="0" result="BackgroundImageFix"/>
<feColorMatrix in="SourceAlpha" type="matrix" values="0 0 0 0 0 0 0 0 0 0 0 0 0 0 0 0 0 0 127 0" result="hardAlpha"/>
<feOffset dy="2"/>
<feGaussianBlur stdDeviation="2"/>
<feComposite in2="hardAlpha" operator="out"/>
<feColorMatrix type="matrix" values="0 0 0 0 0 0 0 0 0 0 0 0 0 0 0 0 0 0 0.25 0"/>
<feBlend mode="normal" in2="BackgroundImageFix" result="effect1_dropShadow_458_791"/>
<feBlend mode="normal" in="SourceGraphic" in2="effect1_dropShadow_458_791" result="shape"/>
</filter>
</defs>
</svg>
