<svg width="40" height="40" viewBox="0 0 40 40" fill="none" xmlns="http://www.w3.org/2000/svg">
<path d="M29.1666 22.51V25.26C29.1676 25.5153 29.1153 25.768 29.013 26.0019C28.9108 26.2358 28.7608 26.4458 28.5726 26.6184C28.3845 26.791 28.1624 26.9224 27.9206 27.0042C27.6787 27.0859 27.4225 27.1163 27.1682 27.0933C24.3475 26.7868 21.638 25.823 19.2574 24.2792C17.0426 22.8718 15.1648 20.994 13.7574 18.7792C12.2082 16.3878 11.2441 13.6651 10.9432 10.8317C10.9203 10.5782 10.9505 10.3227 11.0317 10.0815C11.1129 9.84029 11.2435 9.61864 11.4151 9.43066C11.5867 9.24268 11.7956 9.09249 12.0284 8.98965C12.2612 8.88681 12.5129 8.83358 12.7674 8.83334H15.5174C15.9623 8.82896 16.3935 8.9865 16.7308 9.27658C17.0682 9.56666 17.2885 9.9695 17.3507 10.41C17.4668 11.2901 17.6821 12.1542 17.9924 12.9858C18.1157 13.3139 18.1424 13.6705 18.0693 14.0133C17.9962 14.3561 17.8264 14.6708 17.5799 14.92L16.4157 16.0842C17.7207 18.3791 19.6208 20.2792 21.9157 21.5842L23.0799 20.42C23.3291 20.1736 23.6438 20.0037 23.9866 19.9306C24.3294 19.8575 24.686 19.8842 25.0141 20.0075C25.8457 20.3178 26.7098 20.5331 27.5899 20.6492C28.0352 20.712 28.4419 20.9363 28.7326 21.2794C29.0233 21.6225 29.1777 22.0605 29.1666 22.51Z" stroke="#1F0B0B" stroke-width="1.66667" stroke-linecap="round" stroke-linejoin="round"/>
<g filter="url(#filter0_d_458_792)">
<rect x="4.5" y="2.5" width="31" height="31" rx="5.5" stroke="#FFDBC9" stroke-linejoin="bevel" shape-rendering="crispEdges"/>
</g>
<defs>
<filter id="filter0_d_458_792" x="0" y="0" width="40" height="40" filterUnits="userSpaceOnUse" color-interpolation-filters="sRGB">
<feFlood flood-opacity="0" result="BackgroundImageFix"/>
<feColorMatrix in="SourceAlpha" type="matrix" values="0 0 0 0 0 0 0 0 0 0 0 0 0 0 0 0 0 0 127 0" result="hardAlpha"/>
<feOffset dy="2"/>
<feGaussianBlur stdDeviation="2"/>
<feComposite in2="hardAlpha" operator="out"/>
<feColorMatrix type="matrix" values="0 0 0 0 0 0 0 0 0 0 0 0 0 0 0 0 0 0 0.25 0"/>
<feBlend mode="normal" in2="BackgroundImageFix" result="effect1_dropShadow_458_792"/>
<feBlend mode="normal" in="SourceGraphic" in2="effect1_dropShadow_458_792" result="shape"/>
</filter>
</defs>
</svg>
